<svg width="28" height="19" viewBox="-3 0 30 19" fill="none" xmlns="http://www.w3.org/2000/svg"><path d="M1.44411 3.86858C1.21333 2.63775 2.15758 1.5 3.40985 1.5H7.81325C8.40681 1.5 8.96971 1.76365 9.34969 2.21963L9.40031 2.28037C9.7803 2.73635 10.3432 3 10.9367 3H15.3153C16.2888 3 17.1208 3.70088 17.2862 4.66019L19.0966 15.1602C19.3073 16.3826 18.3661 17.5 17.1257 17.5H5.65985C4.69742 17.5 3.87147 16.8145 3.69411 15.8686L1.44411 3.86858Z" fill="context-stroke" fill-opacity="1"></path><path d="M1.44411 3.86858C1.21333 2.63775 2.15758 1.5 3.40985 1.5H7.81325C8.40681 1.5 8.96971 1.76365 9.34969 2.21963L9.40031 2.28037C9.7803 2.73635 10.3432 3 10.9367 3H15.3153C16.2888 3 17.1208 3.70088 17.2862 4.66019L19.0966 15.1602C19.3073 16.3826 18.3661 17.5 17.1257 17.5H5.65985C4.69742 17.5 3.87147 16.8145 3.69411 15.8686L1.44411 3.86858Z" fill="context-fill" fill-opacity="0.7"></path><path d="M1.44411 3.86858C1.21333 2.63775 2.15758 1.5 3.40985 1.5H7.81325C8.40681 1.5 8.96971 1.76365 9.34969 2.21963L9.40031 2.28037C9.7803 2.73635 10.3432 3 10.9367 3H15.3153C16.2888 3 17.1208 3.70088 17.2862 4.66019L19.0966 15.1602C19.3073 16.3826 18.3661 17.5 17.1257 17.5H5.65985C4.69742 17.5 3.87147 16.8145 3.69411 15.8686L1.44411 3.86858Z" fill="url(#paint0_linear_70_12)" fill-opacity="0.15"></path><path d="M1.44411 3.86858C1.21333 2.63775 2.15758 1.5 3.40985 1.5H7.81325C8.40681 1.5 8.96971 1.76365 9.34969 2.21963L9.40031 2.28037C9.7803 2.73635 10.3432 3 10.9367 3H15.3153C16.2888 3 17.1208 3.70088 17.2862 4.66019L19.0966 15.1602C19.3073 16.3826 18.3661 17.5 17.1257 17.5H5.65985C4.69742 17.5 3.87147 16.8145 3.69411 15.8686L1.44411 3.86858Z" stroke="context-stroke" stroke-width="1.5"></path><path d="M5.59806 7.97376C5.83537 7.10364 6.62569 6.5 7.52759 6.5H19.3815C20.7002 6.5 21.658 7.75396 21.311 9.02623L19.4019 16.0262C19.1646 16.8964 18.3743 17.5 17.4724 17.5H5.6185C4.29975 17.5 3.34199 16.246 3.68897 14.9738L5.59806 7.97376Z" fill="context-fill" fill-opacity="1"></path><path d="M5.59806 7.97376C5.83537 7.10364 6.62569 6.5 7.52759 6.5H19.3815C20.7002 6.5 21.658 7.75396 21.311 9.02623L19.4019 16.0262C19.1646 16.8964 18.3743 17.5 17.4724 17.5H5.6185C4.29975 17.5 3.34199 16.246 3.68897 14.9738L5.59806 7.97376Z" fill="url(#paint1_linear_70_12)" fill-opacity="0.15"></path><path d="M5.59806 7.97376C5.83537 7.10364 6.62569 6.5 7.52759 6.5H19.3815C20.7002 6.5 21.658 7.75396 21.311 9.02623L19.4019 16.0262C19.1646 16.8964 18.3743 17.5 17.4724 17.5H5.6185C4.29975 17.5 3.34199 16.246 3.68897 14.9738L5.59806 7.97376Z" stroke="context-stroke" stroke-width="1.5"></path><defs><linearGradient id="paint0_linear_70_12" x1="13.5" y1="5.8125" x2="13.5" y2="17.5" gradientUnits="userSpaceOnUse"><stop stop-opacity="0"></stop><stop offset="1" stop-color="black" stop-opacity="1"></stop></linearGradient><linearGradient id="paint1_linear_70_12" x1="12.5" y1="5.49404" x2="12.5" y2="17.5" gradientUnits="userSpaceOnUse"><stop stop-opacity="0"></stop><stop offset="1" stop-color="black" stop-opacity="1"></stop></linearGradient></defs></svg>