<svg width="28" height="19" viewBox="-5 0 30 19" fill="none" xmlns="http://www.w3.org/2000/svg"><path d="M1 3.5C1 2.39543 1.89543 1.5 3 1.5H8L10 3.5H15C16.1046 3.5 17 4.39543 17 5.5V15.5C17 16.6046 16.1046 17.5 15 17.5H3C1.89543 17.5 1 16.6046 1 15.5V3.5Z" fill="context-stroke"></path><path d="M1 3.5C1 2.39543 1.89543 1.5 3 1.5H8L10 3.5H15C16.1046 3.5 17 4.39543 17 5.5V15.5C17 16.6046 16.1046 17.5 15 17.5H3C1.89543 17.5 1 16.6046 1 15.5V3.5Z" fill="context-fill"  fill-opacity="0.7"></path><path d="M1 3.5C1 2.39543 1.89543 1.5 3 1.5H8L10 3.5H15C16.1046 3.5 17 4.39543 17 5.5V15.5C17 16.6046 16.1046 17.5 15 17.5H3C1.89543 17.5 1 16.6046 1 15.5V3.5Z" stroke="context-stroke" stroke-width="1.5"></path><path d="M1 8.5C1 7.39543 1.89543 6.5 3 6.5H15C16.1046 6.5 17 7.39543 17 8.5V15.5C17 16.6046 16.1046 17.5 15 17.5H3C1.89543 17.5 1 16.6046 1 15.5V8.5Z" fill="context-fill" stroke="context-stroke" stroke-width="1.5" style="stroke-opacity: 1;"></path></svg>